<?xml version="1.0" encoding="utf-8"?>
<!-- Generator: Adobe Illustrator 22.0.1, SVG Export Plug-In . SVG Version: 6.00 Build 0)  -->
<svg version="1.1" id="图层_1" xmlns="http://www.w3.org/2000/svg" xmlns:xlink="http://www.w3.org/1999/xlink" x="0px" y="0px"
	 viewBox="0 0 52 52" style="enable-background:new 0 0 52 52;" xml:space="preserve">
<style type="text/css">
	.st0{fill:#646464;}
</style>
<g>
	<g>
		<path class="st0" d="M31.5,20.1l2,0V9.2l-2-0.1V20.1z M48,3.6c-1.6-1.6-3.6-2.5-5.8-2.5H8.8C6.5,1.1,4.5,2,2.9,3.6
			C1.3,5.2,0.4,7.2,0.4,9.5v33.3c0,2.3,0.8,4.3,2.4,5.9c1.6,1.6,3.6,2.5,5.9,2.5h33.4c2.3,0,4.2-0.8,5.8-2.5
			c1.6-1.6,2.4-3.6,2.4-5.9V9.5C50.5,7.2,49.7,5.2,48,3.6z M11.5,3.1h28v21h-28V3.1z M48.5,43.1c0,1.4-1,3-2,4c-1,1-2.6,2-4,2h-34
			c-1.4,0-3-1-4-2c-1-1-2-2.6-2-4v-34c0-1.4,1-3,2-4c1-1,3.6-2,5-2l0,23.1h32l0-23.1h1c1.4,0,3,1,4,2c1,1,2,2.6,2,4V43.1z"/>
	</g>
</g>
</svg>
