<?xml version="1.0" standalone="no"?><!DOCTYPE svg PUBLIC "-//W3C//DTD SVG 1.1//EN" "http://www.w3.org/Graphics/SVG/1.1/DTD/svg11.dtd"><svg t="1509613714987" class="icon" style="" viewBox="0 0 1024 1024" version="1.1" xmlns="http://www.w3.org/2000/svg" p-id="1921" xmlns:xlink="http://www.w3.org/1999/xlink" width="128" height="128"><defs><style type="text/css"></style></defs><path d="M715.264 288.768c24.576 0 45.568-19.968 45.568-44.032v-200.704c0-24.576-20.992-44.032-45.568-44.032-24.576 0-44.032 19.968-44.032 44.032v200.704c0 24.064 19.968 44.032 44.032 44.032z m-88.064-177.664H404.48v66.56h223.232v-66.56z m261.12 0h-82.944v66.048h86.016c25.088 0 46.592 21.504 46.592 46.592v154.112h-844.8v-154.112c0-25.6 21.504-46.592 46.592-46.592h86.528v-66.048H143.36c-64 0-116.736 52.736-116.736 116.736v677.888c0 64.512 50.688 116.736 114.688 116.736h746.496c64 0 116.736-52.736 116.736-116.736V227.84c0.512-64-51.712-116.736-116.224-116.736z m50.176 798.208c0 25.6-21.504 46.592-46.592 46.592h-751.616c-25.088 0-46.592-21.504-46.592-46.592v-464.896h844.8v464.896z m-668.16-264.704c36.864 0 67.072-30.208 67.072-67.072 0-36.864-29.696-67.072-67.072-67.072-36.864 0-67.072 30.208-67.072 67.072 0 37.376 30.208 67.072 67.072 67.072z m244.736 0c36.864 0 67.072-30.208 67.072-67.072 0-36.864-29.696-67.072-67.072-67.072-36.864 0-67.072 30.208-67.072 67.072 0.512 37.376 30.208 67.072 67.072 67.072z m-245.76 245.248c36.864 0 67.072-30.208 67.072-67.072 0-36.864-29.696-67.072-67.072-67.072-36.864 0-67.072 30.208-67.072 67.072 0 36.864 30.208 67.072 67.072 67.072z m245.76 0c36.864 0 67.072-30.208 67.072-67.072 0-36.864-29.696-67.072-67.072-67.072-36.864 0-67.072 30.208-67.072 67.072 0.512 36.864 30.208 67.072 67.072 67.072z m244.736-245.248c36.864 0 67.072-30.208 67.072-67.072 0-36.864-29.696-67.072-67.072-67.072-36.864 0-67.072 30.208-67.072 67.072 0 37.376 30.208 67.072 67.072 67.072z m-444.928-355.84c24.576 0 45.568-19.968 45.568-44.032v-200.704c0-24.576-20.992-44.032-45.568-44.032-24.576 0-44.032 19.968-44.032 44.032v200.704c0 24.064 19.968 44.032 44.032 44.032z" fill="#ffffff" p-id="1922"></path></svg>