<?xml version="1.0" encoding="utf-8"?>
<!-- Generator: Adobe Illustrator 22.0.1, SVG Export Plug-In . SVG Version: 6.00 Build 0)  -->
<svg version="1.1" id="图层_1" xmlns="http://www.w3.org/2000/svg" xmlns:xlink="http://www.w3.org/1999/xlink" x="0px" y="0px"
	 viewBox="0 0 36 33" style="enable-background:new 0 0 36 33;" xml:space="preserve">
<style type="text/css">
	.st0{fill:none;stroke:#C83A36;stroke-width:2;}
	.st1{fill:none;stroke:#C83A36;stroke-width:2;stroke-linecap:round;stroke-linejoin:round;}
</style>
<title>Page 1</title>
<desc>Created with Sketch.</desc>
<g id="Page-1">
	<g transform="translate(1.000000, 1.000000)">
		<path id="Stroke-1" class="st0" d="M3.3,30.9l0-17.1c0-1.9,0.4-3.7,1.1-5.4C5,6.8,6,5.3,7.3,4.1c1.3-1.2,2.8-2.3,4.4-3
			C13.4,0.4,15.2,0,17,0c1.9,0,3.6,0.4,5.3,1.1c1.6,0.7,3.1,1.7,4.4,3c1.3,1.3,2.3,2.8,3,4.4c0.7,1.7,1.1,3.5,1.1,5.4v17.1"/>
		<path id="Stroke-3" class="st1" d="M17.7,10.2l-4,6.3l6,1.2l-3.9,6.3 M0.4,30.8h33"/>
	</g>
</g>
</svg>
