<?xml version="1.0" standalone="no"?><!DOCTYPE svg PUBLIC "-//W3C//DTD SVG 1.1//EN" "http://www.w3.org/Graphics/SVG/1.1/DTD/svg11.dtd"><svg t="1511774634892" class="icon" style="" viewBox="0 0 1024 1024" version="1.1" xmlns="http://www.w3.org/2000/svg" p-id="1871" xmlns:xlink="http://www.w3.org/1999/xlink" width="48" height="48"><defs><style type="text/css"></style></defs><path d="M776.372691 742.532467c0 63.517639-28.493961 103.510492-92.012623 103.510492H258.814092c-63.518662 0-103.510492-39.992853-103.510492-103.510492V339.987345c0-63.521732 39.99183-103.510492 103.510492-103.510492h345.037361V201.973014H235.813239c-63.517639 0-115.0145 51.490721-115.014501 115.011431v448.549899c0 63.516616 51.496861 115.013477 115.014501 115.013477h460.052884c63.513546 0 115.009384-51.495838 115.009383-115.013477V524.009522h-34.501791v218.522945z m94.886068-577.760726c-28.788673-28.795836-77.519538-26.742061-108.847034 4.584412L423.660534 508.10325 362.346073 673.67624l165.580153-61.303205L866.67537 273.624914c31.325449-31.325449 33.380248-80.0645 4.583389-108.853173zM505.586428 584.351841l-85.743849 31.747052 31.752168-85.751013 338.492294-338.489224 54.000891 53.995775L505.586428 584.351841z" fill="#ffffff" p-id="1872"></path></svg>