<?xml version="1.0" encoding="UTF-8"?>
<svg width="40px" height="44px" viewBox="0 0 40 44" version="1.1" xmlns="http://www.w3.org/2000/svg" xmlns:xlink="http://www.w3.org/1999/xlink">
    <!-- Generator: Sketch 47.1 (45422) - http://www.bohemiancoding.com/sketch -->
    <title>sms_icon_ior</title>
    <desc>Created with Sketch.</desc>
    <defs></defs>
    <g id="Page-1" stroke="none" stroke-width="1" fill="none" fill-rule="evenodd">
        <g id="Artboard" transform="translate(-40.000000, -175.000000)">
            <g id="sms_icon_ior" transform="translate(40.000000, 175.000000)">
                <rect id="Rectangle-5" fill="#C83A36" x="8" y="16" width="18" height="2" rx="1"></rect>
                <rect id="Rectangle-5-Copy-2" fill="#C83A36" x="8" y="32" width="10" height="2" rx="1"></rect>
                <rect id="Rectangle-5-Copy" fill="#C83A36" x="8" y="24" width="24" height="2" rx="1"></rect>
                <rect id="Rectangle-4" fill="#C83A36" x="11" y="0" width="2" height="8" rx="1"></rect>
                <rect id="Rectangle-4-Copy" fill="#C83A36" x="27" y="0" width="2" height="8" rx="1"></rect>
                <polygon id="Path" fill="#C83A36" points="15 4 25 4 25 6 15 6"></polygon>
                <path d="M36,5 L4,5 C2.34314575,5 1,6.34314575 1,8 L1,40 C1,41.6568542 2.34314575,43 4,43 L36,43 C37.6568542,43 39,41.6568542 39,40 L39,8 C39,6.34314575 37.6568542,5 36,5 Z" id="Combined-Shape" stroke="#C83A36" stroke-width="2"></path>
                <path d="" id="Path-2" stroke="#979797"></path>
            </g>
        </g>
    </g>
</svg>