<?xml version="1.0" encoding="UTF-8"?>
<svg width="44px" height="40px" viewBox="0 0 44 40" version="1.1" xmlns="http://www.w3.org/2000/svg" xmlns:xlink="http://www.w3.org/1999/xlink">
    <!-- Generator: Sketch 47.1 (45422) - http://www.bohemiancoding.com/sketch -->
    <title>sms_icon_add</title>
    <desc>Created with Sketch.</desc>
    <defs></defs>
    <g id="Page-1" stroke="none" stroke-width="1" fill="none" fill-rule="evenodd">
        <g id="Artboard-Copy" transform="translate(-677.000000, -63.000000)">
            <g id="sms_icon_add" transform="translate(678.000000, 64.000000)">
                <rect id="Rectangle-4" fill="#FFFFFF" x="35" y="25" width="2" height="14" rx="1"></rect>
                <rect id="Rectangle-4-Copy" fill="#FFFFFF" transform="translate(36.000000, 32.000000) rotate(-270.000000) translate(-36.000000, -32.000000) " x="35" y="25" width="2" height="14" rx="1"></rect>
                <rect id="Rectangle-3" fill="#FFFFFF" x="8" y="8" width="20" height="2" rx="1"></rect>
                <rect id="Rectangle-3-Copy" fill="#FFFFFF" x="8" y="14" width="20" height="2" rx="1"></rect>
                <rect id="Rectangle-3-Copy-2" fill="#FFFFFF" x="8" y="20" width="12" height="2" rx="1"></rect>
                <path d="M26.0238699,38 L2,38 L2,38 C0.8954305,38 0,37.1045695 0,36 L0,2 L0,2 C0,0.8954305 0.8954305,0 2,0 L2,0 L34,0 L34,0 C35.1045695,0 36,0.8954305 36,2 L36,19.1360144" id="Rectangle-7" stroke="#FFFFFF" stroke-width="2" stroke-linecap="round"></path>
            </g>
        </g>
    </g>
</svg>